<svg id="Layer_1" data-name="Layer 1" xmlns="http://www.w3.org/2000/svg" viewBox="0 0 20 20"><defs><style>.cls-1{fill:#595a5a;}</style></defs><title>icon_ad_2</title><path class="cls-1" d="M18.47,16.84a1.77,1.77,0,0,0-.15-.31L18,16l-.75-1.28a2.33,2.33,0,0,0-2.95-.87l-.49.23a1.91,1.91,0,0,0-1.07,2.09,5.17,5.17,0,0,1-2.54-1.87l-2.13-3-2-2.89a4.56,4.56,0,0,1-.81-2.5,2.14,2.14,0,0,0,2.2,0l.69-.45a1.76,1.76,0,0,0,.41-2.6l-1-1.29L7.07.88,7,.76a2.39,2.39,0,0,0-3-.4L3.43.7a1.83,1.83,0,0,0-.64.75,6.59,6.59,0,0,0-.17,7.9L5.14,13l2.65,3.81a7.79,7.79,0,0,0,8.12,3,2.24,2.24,0,0,0,1.16-.21l.35-.17A2,2,0,0,0,18.47,16.84Z"/></svg>