<svg id="Layer_1" data-name="Layer 1" xmlns="http://www.w3.org/2000/svg" viewBox="0 0 14 14"><defs><style>.cls-1{fill:#595a5a;}</style></defs><title>icon_skill_3</title><path class="cls-1" d="M12.19,12.41H1.81A2.08,2.08,0,0,1-.27,10.33V3.67A2.08,2.08,0,0,1,1.81,1.59H12.19a2.08,2.08,0,0,1,2.08,2.08v6.66A2.08,2.08,0,0,1,12.19,12.41ZM1.81,2.13A1.54,1.54,0,0,0,.27,3.67v6.66a1.54,1.54,0,0,0,1.54,1.54H12.19a1.54,1.54,0,0,0,1.54-1.54V3.67a1.54,1.54,0,0,0-1.54-1.54Z"/><circle class="cls-1" cx="2.77" cy="4.48" r="1.09"/><polygon class="cls-1" points="1.31 10.72 1.31 8.64 4.18 6.62 5.47 8.91 10.02 4.92 12.69 8.53 12.69 10.72 1.31 10.72"/></svg>