<svg id="Layer_1" data-name="Layer 1" xmlns="http://www.w3.org/2000/svg" viewBox="0 0 23 23"><defs><style>.cls-1{fill:#fff;}</style></defs><path class="cls-1" d="M12.05,0c-4.73,0-9.4,3.15-9.4,8.25,0,3.25,1.83,5.09,2.93,5.09.46,0,.72-1.27.72-1.63S5.21,10.37,5.21,8.59a6.23,6.23,0,0,1,6.47-6.34c3.14,0,5.46,1.79,5.46,5.06,0,2.45-1,7-4.16,7a2,2,0,0,1-2.13-2c0-1.74,1.22-3.43,1.22-5.22,0-3.05-4.33-2.5-4.33,1.18a5.48,5.48,0,0,0,.44,2.34c-.63,2.74-1.93,6.82-1.93,9.64,0,.87.12,1.73.2,2.6.16.17.08.15.32.07,2.32-3.18,2.24-3.81,3.29-8a3.74,3.74,0,0,0,3.2,1.66c4.89,0,7.09-4.77,7.09-9.07C20.35,3,16.39,0,12.05,0Z"/></svg>