<svg id="Layer_1" data-name="Layer 1" xmlns="http://www.w3.org/2000/svg" viewBox="0 0 17 17"><defs><style>.cls-1{fill:#595959;}</style></defs><title>icon_skill_1</title><path class="cls-1" d="M14.88,2.66a.53.53,0,0,1,.53.53V13.81l-.17-.22L10.72,7.75a.76.76,0,0,0-.63-.31.81.81,0,0,0-.63.31L6.71,11.31l-1-1.42a.79.79,0,0,0-1.29,0L1.74,13.62l-.15.2h0V3.19a.54.54,0,0,1,.54-.53ZM2.13,1.06A2.13,2.13,0,0,0,0,3.19V13.81a2.13,2.13,0,0,0,2.13,2.13H14.88A2.13,2.13,0,0,0,17,13.81V3.19a2.13,2.13,0,0,0-2.12-2.13ZM4.78,7.44a1.6,1.6,0,1,0,0-3.19,1.6,1.6,0,0,0,0,3.19Z"/></svg>