<svg id="Layer_1" data-name="Layer 1" xmlns="http://www.w3.org/2000/svg" viewBox="0 0 23 23"><defs><style>.cls-1{fill:#fff;}</style></defs><path class="cls-1" d="M11.5,5.6a5.9,5.9,0,1,0,5.9,5.9A5.89,5.89,0,0,0,11.5,5.6Zm0,9.73a3.83,3.83,0,1,1,3.84-3.83,3.84,3.84,0,0,1-3.84,3.83ZM19,5.36A1.38,1.38,0,1,1,17.64,4,1.37,1.37,0,0,1,19,5.36Zm3.91,1.4a6.83,6.83,0,0,0-1.86-4.82A6.89,6.89,0,0,0,16.24.08C14.35,0,8.65,0,6.76.08A6.83,6.83,0,0,0,1.94,1.94,6.79,6.79,0,0,0,.08,6.75C0,8.65,0,14.34.08,16.24a6.83,6.83,0,0,0,1.86,4.82,6.91,6.91,0,0,0,4.82,1.86c1.89.1,7.59.1,9.48,0a6.8,6.8,0,0,0,4.82-1.86,6.83,6.83,0,0,0,1.86-4.82c.11-1.9.11-7.58,0-9.48ZM20.47,18.28a3.88,3.88,0,0,1-2.19,2.18c-1.51.6-5.1.47-6.78.47s-5.27.13-6.78-.47a3.86,3.86,0,0,1-2.18-2.18c-.6-1.52-.46-5.11-.46-6.78s-.14-5.27.46-6.78A3.86,3.86,0,0,1,4.72,2.54c1.52-.6,5.11-.47,6.78-.47s5.27-.13,6.78.47a3.88,3.88,0,0,1,2.19,2.18c.6,1.52.46,5.11.46,6.78S21.07,16.77,20.47,18.28Z"/></svg>