<svg id="Layer_1" data-name="Layer 1" xmlns="http://www.w3.org/2000/svg" viewBox="0 0 23 22"><defs><style>.cls-1{fill:#fff;}</style></defs><title>icon_sns_1</title><path class="cls-1" d="M1.46,2.59a13.5,13.5,0,0,0,9.86,4.9,4.64,4.64,0,0,1,1.79-4.9,4.93,4.93,0,0,1,6.11.51s1,.29,3.07-1a5.19,5.19,0,0,1-1.93,2.52A5.24,5.24,0,0,0,23,3.87a11.4,11.4,0,0,1-2.32,2.44A14.55,14.55,0,0,1,16,17.18c-5.1,4.53-13,3.33-16,1.11,0,0,3.22.79,6.88-1.95a5.06,5.06,0,0,1-4.39-3.25L4.55,13S.7,12.09.87,8.22c0,0,.29.46,1.89.65A5.17,5.17,0,0,1,1.46,2.59Z"/></svg>