<svg id="Layer_1" data-name="Layer 1" xmlns="http://www.w3.org/2000/svg" viewBox="0 0 23 22"><defs><style>.cls-1{fill:#fff;}</style></defs><title>icon_sns_3</title><path class="cls-1" d="M16.11,22.5H6.89A6.9,6.9,0,0,1,0,15.61V6.39A6.9,6.9,0,0,1,6.89-.5h9.22A6.9,6.9,0,0,1,23,6.39v9.22A6.9,6.9,0,0,1,16.11,22.5ZM6.89,1.27A5.13,5.13,0,0,0,1.77,6.39v9.22a5.13,5.13,0,0,0,5.12,5.12h9.22a5.13,5.13,0,0,0,5.12-5.12V6.39a5.13,5.13,0,0,0-5.12-5.12Z"/><path class="cls-1" d="M11.5,17a5.83,5.83,0,1,1,5.82-5.82A5.83,5.83,0,0,1,11.5,17Zm0-9.88a4.06,4.06,0,1,0,4.05,4.06A4.05,4.05,0,0,0,11.5,7.07Z"/><circle class="cls-1" cx="17.27" cy="5.2" r="1.24"/></svg>