<svg id="Layer_1" data-name="Layer 1" xmlns="http://www.w3.org/2000/svg" viewBox="0 0 23 22"><defs><style>.cls-1{fill:#feffff;}.cls-2{fill:#fff;}.cls-3{fill:#595a5a;}</style></defs><title>icon_sns_4</title><path class="cls-1" d="M16.93,22.5H6.07A6.07,6.07,0,0,1,0,16.43V5.57A6.07,6.07,0,0,1,6.07-.5H16.93A6.07,6.07,0,0,1,23,5.57V16.43A6.07,6.07,0,0,1,16.93,22.5ZM6.07.28A5.3,5.3,0,0,0,.78,5.57V16.43a5.3,5.3,0,0,0,5.29,5.29H16.93a5.3,5.3,0,0,0,5.29-5.29V5.57A5.3,5.3,0,0,0,16.93.28Z"/><path class="cls-2" d="M18.38,2.35H5A2.58,2.58,0,0,0,2.44,4.93v7.28A2.59,2.59,0,0,0,5,14.8h5l1.67,2.9,1.67-2.9h5A2.58,2.58,0,0,0,21,12.21V4.93A2.57,2.57,0,0,0,18.38,2.35Z"/><path class="cls-3" d="M5.28,6.16V7.67a2.8,2.8,0,0,1,.57-.45,1.59,1.59,0,0,1,.72-.15,1.66,1.66,0,0,1,.87.23A1.59,1.59,0,0,1,8,8,2.47,2.47,0,0,1,8.22,9a2.66,2.66,0,0,1-.12.82,1.74,1.74,0,0,1-.33.65,1.38,1.38,0,0,1-.53.43,1.51,1.51,0,0,1-.68.15A2,2,0,0,1,6.13,11a1.34,1.34,0,0,1-.34-.15,1.25,1.25,0,0,1-.24-.18,3.85,3.85,0,0,1-.27-.28v.1a.6.6,0,0,1-.13.42.48.48,0,0,1-.68,0,.66.66,0,0,1-.12-.42V6.2a.76.76,0,0,1,.12-.46.41.41,0,0,1,.34-.15.43.43,0,0,1,.35.15A.64.64,0,0,1,5.28,6.16Zm0,2.94A1.37,1.37,0,0,0,5.6,10a.9.9,0,0,0,.71.32A.8.8,0,0,0,7,10a1.43,1.43,0,0,0,.27-.93,1.68,1.68,0,0,0-.11-.67A.92.92,0,0,0,6.79,8a.81.81,0,0,0-.48-.16.85.85,0,0,0-.5.16,1,1,0,0,0-.35.44A1.68,1.68,0,0,0,5.33,9.1Z"/><path class="cls-3" d="M8.91,10.49V6.19a.65.65,0,0,1,.14-.45.44.44,0,0,1,.35-.15.48.48,0,0,1,.37.15.65.65,0,0,1,.14.45v4.3a.65.65,0,0,1-.14.45.5.5,0,0,1-.37.15.43.43,0,0,1-.35-.16A.64.64,0,0,1,8.91,10.49Z"/><path class="cls-3" d="M14.64,9.08a2.38,2.38,0,0,1-.14.81,1.87,1.87,0,0,1-.4.65,1.92,1.92,0,0,1-.62.41,2.39,2.39,0,0,1-.82.14,2.29,2.29,0,0,1-.81-.14,1.79,1.79,0,0,1-.62-.42,1.7,1.7,0,0,1-.4-.64,2.33,2.33,0,0,1-.14-.81,2.45,2.45,0,0,1,.14-.83,1.7,1.7,0,0,1,.4-.64,1.74,1.74,0,0,1,.62-.4,2.09,2.09,0,0,1,.81-.15,2.18,2.18,0,0,1,.82.15,1.77,1.77,0,0,1,.62.41,1.7,1.7,0,0,1,.4.64A2.39,2.39,0,0,1,14.64,9.08Zm-1,0a1.55,1.55,0,0,0-.26-.95A.95.95,0,0,0,12.15,8a1,1,0,0,0-.34.44,1.85,1.85,0,0,0-.12.69,2,2,0,0,0,.11.68,1,1,0,0,0,.34.44.91.91,0,0,0,.52.15.88.88,0,0,0,.72-.33A1.54,1.54,0,0,0,13.64,9.08Z"/><path class="cls-3" d="M19.06,7.79v2.88a3,3,0,0,1-.11.85,1.38,1.38,0,0,1-.33.58,1.46,1.46,0,0,1-.61.35,3.51,3.51,0,0,1-.94.11,2.85,2.85,0,0,1-.91-.14,1.59,1.59,0,0,1-.62-.37.66.66,0,0,1-.22-.47.38.38,0,0,1,.13-.3.44.44,0,0,1,.29-.11.47.47,0,0,1,.38.19l.17.2a1,1,0,0,0,.19.17.82.82,0,0,0,.25.11,1.55,1.55,0,0,0,.33,0,1.24,1.24,0,0,0,.6-.11.56.56,0,0,0,.29-.3,1.08,1.08,0,0,0,.1-.41c0-.14,0-.38,0-.7a1.7,1.7,0,0,1-.53.48,1.47,1.47,0,0,1-.72.17,1.45,1.45,0,0,1-.86-.25,1.7,1.7,0,0,1-.58-.71A2.71,2.71,0,0,1,15.19,9a2.55,2.55,0,0,1,.13-.81,1.6,1.6,0,0,1,.34-.6,1.42,1.42,0,0,1,.52-.37,1.72,1.72,0,0,1,1.38,0,1.91,1.91,0,0,1,.57.51V7.6a.53.53,0,0,1,.13-.39.45.45,0,0,1,.7,0A1.13,1.13,0,0,1,19.06,7.79ZM16.19,9a1.42,1.42,0,0,0,.26.92.87.87,0,0,0,.68.3.88.88,0,0,0,.47-.13,1.09,1.09,0,0,0,.36-.4,1.42,1.42,0,0,0,.13-.65,1.54,1.54,0,0,0-.26-.94.87.87,0,0,0-.7-.34.84.84,0,0,0-.69.33A1.43,1.43,0,0,0,16.19,9Z"/></svg>