<svg id="Layer_1" data-name="Layer 1" xmlns="http://www.w3.org/2000/svg" viewBox="0 0 17 17"><defs><style>.cls-1{fill:#595959;}</style></defs><title>icon_skill_3</title><path class="cls-1" d="M10.43,1.73a.85.85,0,0,0-1,.59L6,14.22a.85.85,0,0,0,1.64.46L11,2.78a.85.85,0,0,0-.59-1Zm2.15,3.19a.85.85,0,0,0,0,1.21L15,8.5l-2.38,2.37a.86.86,0,0,0,1.21,1.21l3-3a.85.85,0,0,0,0-1.2l-3-3a.86.86,0,0,0-1.21,0Zm-8.15,0a.86.86,0,0,0-1.21,0l-3,3a.85.85,0,0,0,0,1.2l3,3a.86.86,0,1,0,1.21-1.21L2.05,8.5,4.43,6.13a.86.86,0,0,0,0-1.21Z"/></svg>