<svg id="Layer_1" data-name="Layer 1" xmlns="http://www.w3.org/2000/svg" viewBox="0 0 14 14"><defs><style>.cls-1{fill:#595a5a;}</style></defs><title>icon_skill_2</title><path class="cls-1" d="M11.44,10.58H2.56A2.11,2.11,0,0,1,.45,8.47V3.63A2.11,2.11,0,0,1,2.56,1.52h8.88a2.11,2.11,0,0,1,2.11,2.11V8.47A2.11,2.11,0,0,1,11.44,10.58ZM2.56,2.07A1.56,1.56,0,0,0,1,3.63V8.47A1.56,1.56,0,0,0,2.56,10h8.88A1.56,1.56,0,0,0,13,8.47V3.63a1.56,1.56,0,0,0-1.56-1.56Z"/><rect class="cls-1" y="11.06" width="14" height="1.15"/></svg>