<svg id="Layer_1" data-name="Layer 1" xmlns="http://www.w3.org/2000/svg" viewBox="0 0 17 17"><defs><style>.cls-1{fill:#595959;}</style></defs><title>icon_skill_2</title><path class="cls-1" d="M15.18,0H1.82A1.83,1.83,0,0,0,0,1.82V15.18A1.83,1.83,0,0,0,1.82,17H15.18A1.83,1.83,0,0,0,17,15.18V1.82A1.83,1.83,0,0,0,15.18,0ZM9.25,13.26a2.17,2.17,0,0,1-2.39,2.41,2.48,2.48,0,0,1-2.39-1.46l1.3-.79c.25.45.48.82,1,.82s.85-.2.85-1V7.81h1.6v5.45ZM13,15.67A3.08,3.08,0,0,1,10.12,14l1.3-.75a1.76,1.76,0,0,0,1.58,1c.66,0,1.08-.33,1.08-.79s-.43-.74-1.16-1.07l-.4-.17c-1.16-.49-1.92-1.1-1.92-2.41a2.14,2.14,0,0,1,2.34-2.11A2.36,2.36,0,0,1,15.21,9L14,9.79a1.07,1.07,0,0,0-1-.68.69.69,0,0,0-.77.68c0,.48.3.67,1,1l.39.17c1.36.58,2.13,1.18,2.13,2.51S14.54,15.67,13,15.67Z"/></svg>