<svg id="Layer_1" data-name="Layer 1" xmlns="http://www.w3.org/2000/svg" viewBox="0 0 23 23"><defs><style>.cls-1{fill:#fff;}</style></defs><path class="cls-1" d="M20.64,6.82c0,.2,0,.4,0,.61A13.32,13.32,0,0,1,7.24,20.84,13.28,13.28,0,0,1,0,18.72a8.53,8.53,0,0,0,1.14.06,9.44,9.44,0,0,0,5.85-2A4.74,4.74,0,0,1,2.58,13.5a6.67,6.67,0,0,0,.89.07,5,5,0,0,0,1.24-.16A4.71,4.71,0,0,1,.93,8.79V8.73a4.78,4.78,0,0,0,2.13.6A4.73,4.73,0,0,1,1,5.4,4.66,4.66,0,0,1,1.61,3,13.36,13.36,0,0,0,11.32,8a5.49,5.49,0,0,1-.11-1.08,4.72,4.72,0,0,1,8.16-3.22,9.5,9.5,0,0,0,3-1.14,4.77,4.77,0,0,1-2.07,2.6A9.62,9.62,0,0,0,23,4.38a10.31,10.31,0,0,1-2.36,2.44Z"/></svg>