<svg xmlns="http://www.w3.org/2000/svg" viewBox="0 0 150 150"><defs><style>.cls-1{fill:#d93b30;}.cls-2{fill:#fff;}</style></defs><g id="레이어_2" data-name="레이어 2"><g id="레이어_1-2" data-name="레이어 1"><circle class="cls-1" cx="75" cy="75" r="75"/><path class="cls-2" d="M109.23,46H40.77A12.59,12.59,0,0,0,28,58.8V91.19C28,98.42,33.55,105,40.77,105h68.46c7.22,0,12.77-6.58,12.77-13.81V58.8A12.59,12.59,0,0,0,109.23,46Z"/><path class="cls-1" d="M90,72,67.13,60.68a3.57,3.57,0,0,0-5.13,3V86.29a3.57,3.57,0,0,0,5.13,3L89.84,78A3.38,3.38,0,0,0,90,72Z"/></g></g></svg>