<svg xmlns="http://www.w3.org/2000/svg" viewBox="0 0 150 150"><defs><style>.cls-1{fill:#40a238;}.cls-2{fill:#fff;}.cls-3{fill:#dc702f;}</style></defs><g id="레이어_2" data-name="레이어 2"><g id="레이어_1-2" data-name="레이어 1"><circle class="cls-1" cx="75" cy="75" r="75"/><path class="cls-2" d="M108,37H40.52A15.23,15.23,0,0,0,25,52.24V89.32A15.59,15.59,0,0,0,40.52,105H63.76l7.93,12.88a2.55,2.55,0,0,0,.25.36,2.67,2.67,0,0,0,4.61,0,2,2,0,0,0,.27-.37L84.74,105H108c8.6,0,16-7,16-15.68V52.24C124,43.62,116.58,37,108,37Z"/><path class="cls-3" d="M47,63.78a7.09,7.09,0,0,0-5,2.38V57H36V82h6V79.76a5.5,5.5,0,0,0,5,2.61S55.48,82,55.48,73C55.48,73,55.18,63.78,47,63.78ZM45.52,77a3.87,3.87,0,1,1,3.88-3.87A3.87,3.87,0,0,1,45.52,77Z"/><path class="cls-3" d="M57,56v5.83s3-.13,3,5V82h6V65.47S66,56,57,56Z"/><path class="cls-3" d="M80.1,63.86s-10,0-10,9.31c0,0-.32,9.2,10,9.2,0,0,10.2,0,10.2-9.2C90.3,73.17,90.64,63.86,80.1,63.86ZM80.1,77A3.87,3.87,0,1,1,84,73.17,3.87,3.87,0,0,1,80.1,77Z"/><path class="cls-3" d="M107,64v2.16a6.68,6.68,0,0,0-5.09-2.3s-8.55-.37-8.55,9.25c0,0-.07,9,8.32,9A7.1,7.1,0,0,0,107,79.76v1.41s.39,4.83-3.89,4.83H102v5h2s9,0,9-9.5V64Zm-3.65,13a3.87,3.87,0,1,1,3.87-3.87A3.88,3.88,0,0,1,103.35,77Z"/></g></g></svg>