<?xml version="1.0" encoding="utf-8"?>
<!-- Generator: Adobe Illustrator 25.3.1, SVG Export Plug-In . SVG Version: 6.00 Build 0)  -->
<svg version="1.1" id="레이어_1" xmlns="http://www.w3.org/2000/svg" x="0px"
     y="0px" viewBox="0 0 30 30" style="enable-background:new 0 0 30 30;" xml:space="preserve">
<style type="text/css">
	.st0{fill:url(#SVGID_1_);}
	.st1{fill:#FFFFFF;}
	.st2{fill:#FFFFFF;stroke:#FFFFFF;stroke-width:0.25;stroke-miterlimit:10;}
	.st3{fill:#FFFFFF;stroke:#FFFFFF;stroke-width:0.5;stroke-miterlimit:10;}
</style>
<g id="레이어_1-2">
	
		<linearGradient id="SVGID_1_" gradientUnits="userSpaceOnUse" x1="6.9896" y1="30.8738" x2="22.6676" y2="3.7198" gradientTransform="matrix(1 0 0 -1 0 32)">
		<stop  offset="0" style="stop-color:#2C4B8E"/>
		<stop  offset="0.11" style="stop-color:#254087"/>
		<stop  offset="0.22" style="stop-color:#553D85"/>
		<stop  offset="0.37" style="stop-color:#83347F"/>
		<stop  offset="0.5" style="stop-color:#AA286A"/>
		<stop  offset="0.63" style="stop-color:#C93237"/>
		<stop  offset="0.71" style="stop-color:#CD3E30"/>
		<stop  offset="0.86" style="stop-color:#D97634"/>
		<stop  offset="1" style="stop-color:#E4B962"/>
	</linearGradient>
	<circle class="st0" cx="15" cy="15" r="15"/>
	<path class="st1" d="M18.4,7.3h-6.8C9.1,7.3,7,9.4,7,12v6.8c0,2.6,2.1,4.6,4.6,4.6h6.8c2.6,0,4.6-2.1,4.6-4.6V12
		C23.1,9.4,21,7.3,18.4,7.3z M21.6,18.8c0,1.7-1.4,3.1-3.1,3.1h-6.9c-1.7,0-3.1-1.4-3.1-3.1v-6.9c0-1.7,1.4-3.1,3.1-3.2h6.9
		c1.7,0,3.1,1.4,3.1,3.2L21.6,18.8z"/>
	<path class="st1" d="M18.4,23.6h-6.8c-2.7,0-4.9-2.2-4.9-4.9V12c0-2.7,2.2-4.9,4.9-4.9h6.8c2.7,0,4.9,2.2,4.9,4.9v6.8
		C23.3,21.4,21.1,23.6,18.4,23.6z M11.7,7.6c-2.4,0-4.4,2-4.4,4.4v6.8c0,2.4,2,4.4,4.4,4.4h6.8c2.4,0,4.4-2,4.4-4.4V12
		c0-2.4-2-4.4-4.4-4.4H11.7z M18.5,22.2h-6.9c-1.8,0-3.4-1.5-3.4-3.3v-6.9c0-1.9,1.5-3.4,3.4-3.4h6.9c1.9,0,3.3,1.5,3.4,3.4v6.9
		C21.9,20.7,20.4,22.2,18.5,22.2L18.5,22.2z M11.6,9c-1.6,0-2.9,1.3-2.9,2.9v6.9c0,1.6,1.3,2.8,2.9,2.8h6.9c1.6,0,2.9-1.3,2.9-2.8
		v-6.9c0-1.6-1.3-2.9-2.9-2.9H11.6z"/>
	<path class="st2" d="M15.1,11.5c-2.2,0-3.9,1.7-3.9,3.9s1.7,3.9,3.9,3.9s3.9-1.7,3.9-3.9C19,13.2,17.2,11.5,15.1,11.5
		C15.1,11.5,15.1,11.5,15.1,11.5z M15.1,17.9c-1.4,0-2.5-1.1-2.5-2.5s1.1-2.5,2.5-2.5s2.5,1.1,2.5,2.5c0,0,0,0,0,0
		C17.6,16.8,16.5,17.9,15.1,17.9C15.1,17.9,15.1,17.9,15.1,17.9z"/>
	<path class="st3" d="M19.2,10.4c-0.4,0-0.8,0.4-0.8,0.8s0.4,0.8,0.8,0.8c0.4,0,0.8-0.4,0.8-0.8c0,0,0,0,0,0
		C20,10.8,19.6,10.4,19.2,10.4z"/>
</g>
</svg>
