<svg id="Layer_1" data-name="Layer 1" xmlns="http://www.w3.org/2000/svg" viewBox="0 0 23 23"><defs><style>.cls-1{fill:#fff;}</style></defs><path class="cls-1" d="M22.92,16.74a1.63,1.63,0,0,0-.81-.86l-.18-.09-.31-.16a6.86,6.86,0,0,1-2.51-2.15,4.46,4.46,0,0,1-.43-.77.4.4,0,0,1,0-.3.93.93,0,0,1,.14-.14l.51-.33.53-.35a2.81,2.81,0,0,0,.95-1,2,2,0,0,0,.1-1.67A2,2,0,0,0,19,7.66a2.67,2.67,0,0,0-.56.06l-.14,0a15.13,15.13,0,0,0-.05-1.64,6,6,0,0,0-1.55-3.75,6.44,6.44,0,0,0-1.57-1.27A7.21,7.21,0,0,0,11.5.17a7.17,7.17,0,0,0-3.6.92A6.49,6.49,0,0,0,6.32,2.36,6.05,6.05,0,0,0,4.77,6.12c0,.55-.06,1.11,0,1.63l-.14,0A2.67,2.67,0,0,0,4,7.66,2,2,0,0,0,2.11,8.91a2,2,0,0,0,.1,1.67,2.81,2.81,0,0,0,1,1l.53.35.49.32a.57.57,0,0,1,.15.16.37.37,0,0,1,0,.31,4.68,4.68,0,0,1-.43.75A6.85,6.85,0,0,1,1.46,15.6c-.56.29-1.13.49-1.38,1.15a1.46,1.46,0,0,0,.4,1.54,2.56,2.56,0,0,0,.59.45,6.35,6.35,0,0,0,1.44.57,1.08,1.08,0,0,1,.29.13c.17.15.15.37.37.7a1.6,1.6,0,0,0,.43.43,2.75,2.75,0,0,0,1.57.37,6.29,6.29,0,0,1,1.75.26,4.56,4.56,0,0,1,.89.47,6.46,6.46,0,0,0,7.39,0,4.17,4.17,0,0,1,.88-.46A5.94,5.94,0,0,1,17.83,21a2.92,2.92,0,0,0,1.57-.37,1.65,1.65,0,0,0,.49-.53c.16-.28.15-.47.31-.61a.83.83,0,0,1,.27-.12,6.84,6.84,0,0,0,1.46-.58,2.23,2.23,0,0,0,.61-.49h0A1.44,1.44,0,0,0,22.92,16.74Zm-1.61.87c-1,.54-1.64.48-2.15.81s-.18.88-.49,1.09-1.52,0-3,.47c-1.21.4-2,1.56-4.17,1.56S8.56,20.38,7.33,20c-1.47-.49-2.61-.2-3-.47s-.06-.82-.49-1.09-1.16-.27-2.14-.81c-.63-.35-.28-.56-.07-.66,3.56-1.73,4.13-4.39,4.16-4.59a.64.64,0,0,0-.2-.67c-.26-.23-1.38-.93-1.7-1.15-.52-.36-.74-.72-.58-1.17A.71.71,0,0,1,4,9,1.33,1.33,0,0,1,4.3,9c.57.12,1.12.41,1.44.49h.12c.17,0,.23-.08.22-.28a19.93,19.93,0,0,1,0-3,4.69,4.69,0,0,1,1.24-3A5.48,5.48,0,0,1,11.5,1.47a5.51,5.51,0,0,1,4.21,1.74,4.72,4.72,0,0,1,1.24,3,21.28,21.28,0,0,1,0,3c0,.21,0,.29.22.29l.12,0c.32-.08.87-.36,1.44-.49a1.27,1.27,0,0,1,.28,0,.69.69,0,0,1,.7.43c.17.44-.05.8-.57,1.16-.32.22-1.45.92-1.7,1.16a.63.63,0,0,0-.2.67c0,.2.59,2.86,4.16,4.58C21.58,17.05,21.93,17.26,21.31,17.61Z"/></svg>